<svg width="52" height="52" viewBox="0 0 52 52" fill="none" xmlns="http://www.w3.org/2000/svg">
<rect width="52" height="52" rx="16" fill="#CFFAEA"/>
<path d="M41 15H11C10.4 15 10 15.4 10 16V36C10 36.6 10.4 37 11 37H41C41.6 37 42 36.6 42 36V16C42 15.4 41.6 15 41 15ZM39 30C39 30.6 38.6 31 38 31C36.9 31 36 31.9 36 33C36 33.6 35.6 34 35 34H17C16.4 34 16 33.6 16 33C16 31.9 15.1 31 14 31C13.4 31 13 30.6 13 30V22C13 21.4 13.4 21 14 21C15.1 21 16 20.1 16 19C16 18.4 16.4 18 17 18H35C35.6 18 36 18.4 36 19C36 20.1 36.9 21 38 21C38.6 21 39 21.4 39 22V30Z" fill="#00A86B"/>
<path d="M26 31C28.2091 31 30 28.7614 30 26C30 23.2386 28.2091 21 26 21C23.7909 21 22 23.2386 22 26C22 28.7614 23.7909 31 26 31Z" fill="#00A86B"/>
</svg>
