<svg width="60" height="60" viewBox="0 0 60 60" fill="none" xmlns="http://www.w3.org/2000/svg">
<rect width="60" height="60" rx="16" fill="#0077FF"/>
<path d="M22.5 45C26.6421 45 30 41.6421 30 37.5C30 33.3579 26.6421 30 22.5 30C18.3579 30 15 33.3579 15 37.5C15 41.6421 18.3579 45 22.5 45Z" fill="#FCFCFC"/>
<path d="M37.5 30C41.6421 30 45 26.6421 45 22.5C45 18.3579 41.6421 15 37.5 15C33.3579 15 30 18.3579 30 22.5C30 26.6421 33.3579 30 37.5 30Z" fill="#FCFCFC"/>
<path d="M17.7 27.5C17.8198 27.5449 17.9471 27.5662 18.075 27.5625C18.3507 27.5751 18.6229 27.4961 18.849 27.3378C19.0751 27.1796 19.2425 26.9509 19.325 26.6875C19.7749 25.2496 20.5091 23.9167 21.4839 22.7679C22.4588 21.6191 23.6544 20.6779 25 20V21.25C25 21.5815 25.1317 21.8995 25.3661 22.1339C25.6005 22.3683 25.9185 22.5 26.25 22.5C26.5815 22.5 26.8994 22.3683 27.1339 22.1339C27.3683 21.8995 27.5 21.5815 27.5 21.25V16.25C27.5 15.9185 27.3683 15.6005 27.1339 15.3661C26.8994 15.1317 26.5815 15 26.25 15H21.25C20.9185 15 20.6005 15.1317 20.3661 15.3661C20.1317 15.6005 20 15.9185 20 16.25C20 16.5815 20.1317 16.8995 20.3661 17.1339C20.6005 17.3683 20.9185 17.5 21.25 17.5H24.275C22.5239 18.3001 20.9605 19.4591 19.6857 20.9018C18.411 22.3445 17.4534 24.0388 16.875 25.875C16.8169 26.0356 16.7923 26.2064 16.8028 26.3768C16.8133 26.5473 16.8586 26.7137 16.9359 26.866C17.0132 27.0183 17.1209 27.1531 17.2523 27.2621C17.3837 27.3712 17.5361 27.4521 17.7 27.5V27.5Z" fill="#FCFCFC"/>
<path d="M33.75 37.4996C33.4184 37.4996 33.1005 37.6313 32.8661 37.8657C32.6317 38.1001 32.5 38.4181 32.5 38.7496V43.7496C32.5 44.0811 32.6317 44.3991 32.8661 44.6335C33.1005 44.8679 33.4184 44.9996 33.75 44.9996H38.75C39.0815 44.9996 39.3994 44.8679 39.6339 44.6335C39.8683 44.3991 40 44.0811 40 43.7496C40 43.4181 39.8683 43.1001 39.6339 42.8657C39.3994 42.6313 39.0815 42.4996 38.75 42.4996H35.7125C37.6828 41.6006 39.4129 40.2489 40.7618 38.5546C42.1107 36.8603 43.0404 34.8713 43.475 32.7496C43.5078 32.5855 43.508 32.4164 43.4755 32.2522C43.443 32.088 43.3785 31.9318 43.2856 31.7925C43.1928 31.6532 43.0734 31.5336 42.9343 31.4404C42.7952 31.3473 42.6391 31.2824 42.475 31.2496C42.3108 31.2168 42.1418 31.2166 41.9776 31.2491C41.8134 31.2816 41.6571 31.3461 41.5179 31.4389C41.3786 31.5318 41.2589 31.6512 41.1658 31.7903C41.0726 31.9294 41.0078 32.0855 40.975 32.2496C40.6356 33.9193 39.9215 35.49 38.8865 36.8434C37.8514 38.1968 36.5225 39.2974 35 40.0621V38.7496C35 38.4181 34.8683 38.1001 34.6339 37.8657C34.3994 37.6313 34.0815 37.4996 33.75 37.4996Z" fill="#FCFCFC"/>
</svg>
