<svg width="60" height="60" viewBox="0 0 60 60" fill="none" xmlns="http://www.w3.org/2000/svg">
<rect width="60" height="60" rx="16" fill="#FCEED4"/>
<path d="M44.4733 23.5147C44.013 22.9477 43.7085 22.6206 43.1594 22.0265C41.3972 20.1239 39.8034 18.4412 39.8017 18.4395L39.0073 17.6005L37.9072 18.7342L40.1824 22.3787L40.206 22.4296C40.2181 22.469 40.2296 22.5339 40.2296 22.6178C40.2329 22.7978 40.1682 23.0579 40.0732 23.2379L39.8735 23.6259C39.6425 24.0757 39.5131 25.0317 39.5136 25.5286C39.5131 26.0068 39.6206 26.4874 39.8362 26.9257L40.2296 27.7265C40.6899 28.6634 41.5765 29.2679 42.5635 29.3478L42.7528 29.4103C42.7528 32.0455 42.7528 35.3303 42.7528 37.8561C42.7495 38.5914 42.5448 39.0292 42.3182 39.2967C42.0878 39.5625 41.8157 39.6719 41.5666 39.6726C41.3252 39.6679 41.1112 39.5828 40.9093 39.3431C40.7118 39.1022 40.5077 38.6576 40.5055 37.8562C40.5055 35.4844 40.5055 34.8915 40.5055 33.4092C40.505 32.9355 40.4149 32.4666 40.2504 32.0126C40.0024 31.3339 39.5815 30.6808 38.9666 30.1759C38.3559 29.671 37.5357 29.3374 36.6178 29.341C36.5103 29.341 36.4018 29.3473 36.292 29.356V16.1464C36.2921 14.3827 34.9375 12.9531 33.2663 12.9531H19.9921C18.3209 12.9531 16.9664 14.3827 16.9664 16.1464V43.1924H15V47.0464H38.2583V43.1924H36.292V31.7427C36.4083 31.7247 36.5192 31.7126 36.6178 31.7126C36.9015 31.7137 37.1232 31.7745 37.3179 31.8724C37.6077 32.0183 37.8463 32.265 38.0136 32.5614C38.1821 32.8532 38.261 33.1914 38.2583 33.4091C38.2583 34.8914 38.2583 35.4843 38.2583 37.8561C38.2561 39.0917 38.5935 40.1479 39.2129 40.8989C39.8274 41.6516 40.7057 42.0494 41.5666 42.0448C42.4614 42.0453 43.3442 41.6343 43.9828 40.8902C44.6247 40.1467 45.0033 39.0825 45 37.8561C45 34.0021 45 27.8504 45 25.4788C45 24.367 44.8947 24.0335 44.4733 23.5147ZM31.7976 28.0728H21.4608V17.6966H31.7976V28.0728H31.7976ZM42.7528 27.0705C42.7528 27.2575 42.6513 27.345 42.507 27.342C42.2355 27.3374 41.8124 27.2754 41.6292 26.961C41.3017 26.3993 40.8606 25.305 41.3384 24.4469C41.3894 24.3554 41.5008 24.2083 41.6994 24.3485L42.3386 24.968C42.6024 25.2228 42.7528 25.5824 42.7528 25.9599C42.7528 25.9599 42.7528 26.8834 42.7528 27.0705Z" fill="#FCAC12"/>
</svg>
