<svg width="60" height="60" viewBox="0 0 60 60" fill="none" xmlns="http://www.w3.org/2000/svg">
<rect width="60" height="60" rx="16" fill="#BDDCFF"/>
<path d="M40.3255 35.4256C39.4651 30.2777 34.5213 26.0923 29.3005 26.0923C23.6275 26.0923 18.64 30.686 18.1588 36.3444C17.9692 38.5319 18.6692 40.6027 20.1129 42.1631C21.5421 43.7235 23.5546 44.5839 25.7421 44.5839H32.5671C35.0317 44.5839 37.1901 43.6214 38.663 41.886C40.1359 40.1506 40.7192 37.8464 40.3255 35.4256Z" fill="#0077FF"/>
<path d="M27.491 23.9623C29.8509 23.9623 31.764 22.0493 31.764 19.6894C31.764 17.3296 29.8509 15.4165 27.491 15.4165C25.1312 15.4165 23.2181 17.3296 23.2181 19.6894C23.2181 22.0493 25.1312 23.9623 27.491 23.9623Z" fill="#0077FF"/>
<path d="M37.2042 25.6665C39.1695 25.6665 40.7625 24.0733 40.7625 22.1081C40.7625 20.1429 39.1695 18.5498 37.2042 18.5498C35.239 18.5498 33.6459 20.1429 33.6459 22.1081C33.6459 24.0733 35.239 25.6665 37.2042 25.6665Z" fill="#0077FF"/>
<path d="M42.4681 31.358C44.0388 31.358 45.3119 30.0847 45.3119 28.5141C45.3119 26.9436 44.0388 25.6704 42.4681 25.6704C40.8977 25.6704 39.6244 26.9436 39.6244 28.5141C39.6244 30.0847 40.8977 31.358 42.4681 31.358Z" fill="#0077FF"/>
<path d="M18.2458 28.5147C20.211 28.5147 21.8042 26.9215 21.8042 24.9563C21.8042 22.9911 20.211 21.3979 18.2458 21.3979C16.2806 21.3979 14.6875 22.9911 14.6875 24.9563C14.6875 26.9215 16.2806 28.5147 18.2458 28.5147Z" fill="#0077FF"/>
</svg>
